[img]http://ecx.images-amazon.com/images/I/51e+yLaD0tL.jpg[/img]

[quote][img]http://img808.imageshack.us/img808/8581/646238we5inyn.png[/img]

General
Complete name                    : Kung Fu Panda 2008 BRrip Hind
Format                           : Matroska
File size                        : 468 MiB
Duration                         : 1h 28mn
Overall bit rate                 : 740 Kbps


Video
ID                               : 1
Format                           : AVC
Format/Info                      : Advanced Video Codec
Format profile                   : High@L3.1
Format settings, CABAC           : Yes
Format settings, ReFrames        : 5 frames
Muxing mode                      : Header stripping
Codec ID                         : V_MPEG4/ISO/AVC
Duration                         : 1h 28mn
Bit rate                         : 647 Kbps
Width                            : 1 280 pixels
Height                           : 540 pixels
Display aspect ratio             : 2.35:1
Original display aspect ratio    : 2.35:1
Frame rate                       : 25.000 fps
Original frame rate              : 23.976 fps
Color space                      : YUV
Chroma subsampling               : 4:2:0
Bit depth                        : 8 bits
Scan type                        : Progressive
Bits/(Pixel*Frame)               : 0.037
Stream size                      : 418 MiB (89%)

Audio
ID                               : 2
Format                           : MPEG Audio
Format version                   : Version 1
Format profile                   : Layer 3
Mode                             : Joint stereo
Mode extension                   : MS Stereo
Muxing mode                      : Header stripping
Codec ID                         : A_MPEG/L3
Codec ID/Hint                    : MP3
Duration                         : 1h 28mn
Bit rate mode                    : Constant
Bit rate                         : 64.0 Kbps
Channel(s)                       : 2 channels
Sampling rate                    : 44.1 KHz
Stream size                      : 40.5 MiB (9%)



[img]http://img839.imageshack.us/img839/3343/25ic0hd1.png[/img]
It's the story about a lazy, irreverent slacker panda, named Po, who is the biggest fan of Kung Fu around...which doesn't exactly come in handy while working every day in his family's noodle shop. Unexpectedly chosen to fulfill an ancient prophecy, Po's dreams become reality when he joins the world of Kung Fu and studies alongside his idols, the legendary Furious Five -- Tigress, Crane, Mantis, Viper and Monkey -- under the leadership of their guru, Master Shifu. But before they know it, the vengeful and treacherous snow leopard Tai Lung is headed their way, and it's up to Po to defend everyone from the oncoming threat. Can he turn his dreams of becoming a Kung Fu master into reality? Po puts his heart - and his girth - into the task, and the unlikely hero ultimately finds that his greatest weaknesses turn out to be his greatest strengths.



[img]http://img526.imageshack.us/img526/7057/imdb3.png[/img]

[url]http://www.imdb.com/title/tt0441773/[/url]


[img]http://img233.imageshack.us/img233/4783/9k1gty1.png[/img]

Directors: Mark Osborne, John Stevenson
 Writers: Jonathan Aibel (screenplay), Glenn Berger (screenplay),  and 2 more credits » 
Stars: Jack Black, Ian McShane and Angelina Jolie

[img]http://cdn-images.hollywood.com/site/boxoffice_logo.jpg[/img]

Budget: $130,000,000 (estimated) 
Opening Weekend: $60,239,130 (USA) (8 June 2008) (4114 Screens) 
Gross: $631,744,560 (Worldwide)

[img]http://img814.imageshack.us/img814/6269/screenpam.png[/img]
[img]http://leetleech.org/images/51988989831793992888.jpg[/img]
[img]http://leetleech.org/images/67635405149175030478.jpg[/img]
[img]http://leetleech.org/images/04106789440166596170.jpg[/img]
[img]http://leetleech.org/images/48271740429508329428.jpg[/img][/quote]


[img]http://img411.imageshack.us/img411/5893/phpthumbgeneratedthumbnw.gif[/img]

[img]http://www.spreadsheet123.com/images/facebook_logo.gif[/img]